# xmcd
#
# Track frame offsets: 
#        150
#        25013
#        43158
#        55565
#        78273
#        108776
#        136741
#        142413
#        160823
#        195290
#        218421
#        234744
#        256674
#        282870
#        310417
#
# Disc length: 4332 seconds
#
# Revision: 1
# Processed by: cddbd v1.5.2PL0 Copyright (c) Steve Scherf et al.
# Submitted via: ExactAudioCopy v0.99pb5
#
DISCID=c110ea0f
DTITLE=Frank Schätzing - Mordshunger CD2
DYEAR=2007
DGENRE=Hörbuch
TTITLE0=15 Erster Tag 5
TTITLE1=16 Erster Tag 6
TTITLE2=17 Erster Tag 7
TTITLE3=18 Erster Tag 8
TTITLE4=19 Erster Tag 9
TTITLE5=20 Erster Tag 10
TTITLE6=21 Erster Tag 11
TTITLE7=22 Erster Tag 12
TTITLE8=23 Erster Tag 13
TTITLE9=24 Erster Tag 14
TTITLE10=25 Zweiter Tag 1
TTITLE11=26 Zweiter Tag 2
TTITLE12=27 Zweiter Tag 3
TTITLE13=28 Zweiter Tag 4
TTITLE14=29 Zweiter Tag 5
EXTD=gelesen von Frank Schätzing
EXTT0=
EXTT1=
EXTT2=
EXTT3=
EXTT4=
EXTT5=
EXTT6=
EXTT7=
EXTT8=
EXTT9=
EXTT10=
EXTT11=
EXTT12=
EXTT13=
EXTT14=
PLAYORDER=
